<?xml version="1.0" encoding="UTF-8"?>
<svg id="Layer_2" data-name="Layer 2" xmlns="http://www.w3.org/2000/svg" viewBox="0 0 231.8 163.76">
  <defs>
    <style>
      .cls-1 {
        fill: #37c2ec;
      }

      .cls-1, .cls-2 {
        opacity: .5;
      }
    </style>
  </defs>
  <g id="Layer_1-2" data-name="Layer 1">
    <g class="cls-2">
      <g>
        <circle class="cls-1" cx="2.5" cy="93.22" r="2.5"/>
        <circle class="cls-1" cx="25.18" cy="93.22" r="2.5"/>
        <circle class="cls-1" cx="47.86" cy="93.22" r="2.5"/>
        <circle class="cls-1" cx="70.54" cy="93.22" r="2.5"/>
        <circle class="cls-1" cx="93.22" cy="93.22" r="2.5"/>
        <circle class="cls-1" cx="115.9" cy="93.22" r="2.5"/>
        <circle class="cls-1" cx="138.58" cy="93.22" r="2.5"/>
        <circle class="cls-1" cx="161.26" cy="93.22" r="2.5"/>
        <circle class="cls-1" cx="2.5" cy="115.9" r="2.5"/>
        <circle class="cls-1" cx="25.18" cy="115.9" r="2.5"/>
        <circle class="cls-1" cx="47.86" cy="115.9" r="2.5"/>
        <circle class="cls-1" cx="70.54" cy="115.9" r="2.5"/>
        <circle class="cls-1" cx="93.22" cy="115.9" r="2.5"/>
        <circle class="cls-1" cx="115.9" cy="115.9" r="2.5"/>
        <circle class="cls-1" cx="138.58" cy="115.9" r="2.5"/>
        <circle class="cls-1" cx="161.26" cy="115.9" r="2.5"/>
        <circle class="cls-1" cx="2.5" cy="138.58" r="2.5"/>
        <circle class="cls-1" cx="25.18" cy="138.58" r="2.5"/>
        <circle class="cls-1" cx="47.86" cy="138.58" r="2.5"/>
        <circle class="cls-1" cx="70.54" cy="138.58" r="2.5"/>
        <circle class="cls-1" cx="93.22" cy="138.58" r="2.5"/>
        <circle class="cls-1" cx="115.9" cy="138.58" r="2.5"/>
        <circle class="cls-1" cx="138.58" cy="138.58" r="2.5"/>
        <circle class="cls-1" cx="161.26" cy="138.58" r="2.5"/>
        <circle class="cls-1" cx="2.5" cy="161.26" r="2.5"/>
        <circle class="cls-1" cx="25.18" cy="161.26" r="2.5"/>
        <circle class="cls-1" cx="47.86" cy="161.26" r="2.5"/>
        <circle class="cls-1" cx="70.54" cy="161.26" r="2.5"/>
        <circle class="cls-1" cx="93.22" cy="161.26" r="2.5"/>
        <circle class="cls-1" cx="115.9" cy="161.26" r="2.5"/>
        <circle class="cls-1" cx="138.58" cy="161.26" r="2.5"/>
        <circle class="cls-1" cx="161.26" cy="161.26" r="2.5"/>
      </g>
      <g>
        <circle class="cls-1" cx="2.5" cy="2.5" r="2.5"/>
        <circle class="cls-1" cx="25.18" cy="2.5" r="2.5"/>
        <circle class="cls-1" cx="47.86" cy="2.5" r="2.5"/>
        <circle class="cls-1" cx="70.54" cy="2.5" r="2.5"/>
        <circle class="cls-1" cx="93.22" cy="2.5" r="2.5"/>
        <circle class="cls-1" cx="115.9" cy="2.5" r="2.5"/>
        <circle class="cls-1" cx="138.58" cy="2.5" r="2.5"/>
        <circle class="cls-1" cx="161.26" cy="2.5" r="2.5"/>
        <circle class="cls-1" cx="2.5" cy="25.18" r="2.5"/>
        <circle class="cls-1" cx="25.18" cy="25.18" r="2.5"/>
        <circle class="cls-1" cx="47.86" cy="25.18" r="2.5"/>
        <circle class="cls-1" cx="70.54" cy="25.18" r="2.5"/>
        <circle class="cls-1" cx="93.22" cy="25.18" r="2.5"/>
        <circle class="cls-1" cx="115.9" cy="25.18" r="2.5"/>
        <circle class="cls-1" cx="138.58" cy="25.18" r="2.5"/>
        <circle class="cls-1" cx="161.26" cy="25.18" r="2.5"/>
        <circle class="cls-1" cx="2.5" cy="47.86" r="2.5"/>
        <circle class="cls-1" cx="25.18" cy="47.86" r="2.5"/>
        <circle class="cls-1" cx="47.86" cy="47.86" r="2.5"/>
        <circle class="cls-1" cx="70.54" cy="47.86" r="2.5"/>
        <circle class="cls-1" cx="93.22" cy="47.86" r="2.5"/>
        <circle class="cls-1" cx="115.9" cy="47.86" r="2.5"/>
        <circle class="cls-1" cx="138.58" cy="47.86" r="2.5"/>
        <circle class="cls-1" cx="161.26" cy="47.86" r="2.5"/>
        <circle class="cls-1" cx="2.5" cy="70.54" r="2.5"/>
        <circle class="cls-1" cx="25.18" cy="70.54" r="2.5"/>
        <circle class="cls-1" cx="47.86" cy="70.54" r="2.5"/>
        <circle class="cls-1" cx="70.54" cy="70.54" r="2.5"/>
        <circle class="cls-1" cx="93.22" cy="70.54" r="2.5"/>
        <circle class="cls-1" cx="115.9" cy="70.54" r="2.5"/>
        <circle class="cls-1" cx="138.58" cy="70.54" r="2.5"/>
        <circle class="cls-1" cx="161.26" cy="70.54" r="2.5"/>
      </g>
      <g>
        <circle class="cls-1" cx="183.94" cy="93.22" r="2.5"/>
        <circle class="cls-1" cx="206.62" cy="93.22" r="2.5"/>
        <circle class="cls-1" cx="229.3" cy="93.22" r="2.5"/>
        <circle class="cls-1" cx="183.94" cy="115.9" r="2.5"/>
        <circle class="cls-1" cx="206.62" cy="115.9" r="2.5"/>
        <circle class="cls-1" cx="229.3" cy="115.9" r="2.5"/>
        <circle class="cls-1" cx="183.94" cy="138.58" r="2.5"/>
        <circle class="cls-1" cx="206.62" cy="138.58" r="2.5"/>
        <circle class="cls-1" cx="229.3" cy="138.58" r="2.5"/>
        <circle class="cls-1" cx="183.94" cy="161.26" r="2.5"/>
        <circle class="cls-1" cx="206.62" cy="161.26" r="2.5"/>
        <circle class="cls-1" cx="229.3" cy="161.26" r="2.5"/>
      </g>
      <g>
        <circle class="cls-1" cx="183.94" cy="2.5" r="2.5"/>
        <circle class="cls-1" cx="206.62" cy="2.5" r="2.5"/>
        <circle class="cls-1" cx="229.3" cy="2.5" r="2.5"/>
        <circle class="cls-1" cx="183.94" cy="25.18" r="2.5"/>
        <circle class="cls-1" cx="206.62" cy="25.18" r="2.5"/>
        <circle class="cls-1" cx="229.3" cy="25.18" r="2.5"/>
        <circle class="cls-1" cx="183.94" cy="47.86" r="2.5"/>
        <circle class="cls-1" cx="206.62" cy="47.86" r="2.5"/>
        <circle class="cls-1" cx="229.3" cy="47.86" r="2.5"/>
        <circle class="cls-1" cx="183.94" cy="70.54" r="2.5"/>
        <circle class="cls-1" cx="206.62" cy="70.54" r="2.5"/>
        <circle class="cls-1" cx="229.3" cy="70.54" r="2.5"/>
      </g>
    </g>
  </g>
</svg>