<?xml version="1.0" encoding="UTF-8"?>
<svg id="Layer_2" data-name="Layer 2" xmlns="http://www.w3.org/2000/svg" xmlns:xlink="http://www.w3.org/1999/xlink" viewBox="0 0 80.21 51.29">
  <defs>
    <style>
      .cls-1 {
        fill: #111315;
      }

      .cls-2 {
        fill: #37c2ec;
      }

      .cls-3 {
        fill: url(#linear-gradient);
      }
    </style>
    <linearGradient id="linear-gradient" x1="46.26" y1="37.73" x2="46.26" y2="0" gradientUnits="userSpaceOnUse">
      <stop offset="0" stop-color="#0e0f10" stop-opacity=".9"/>
      <stop offset="1" stop-color="#151718"/>
    </linearGradient>
  </defs>
  <g id="Layer_1-2" data-name="Layer 1">
    <g>
      <polygon class="cls-2" points="13.01 0 0 15.51 0 0 13.01 0"/>
      <g>
        <path class="cls-1" d="M2.12,47.93l-1.19,1.4v1.86H0v-6.33h.94v3.28l2.73-3.28h1.16l-2.01,2.38,2.12,3.95h-1.08l-1.73-3.27Z"/>
        <path class="cls-1" d="M9.3,51.29c-.36,0-.69-.06-.99-.17-.3-.12-.56-.28-.78-.49-.22-.21-.38-.47-.5-.77-.12-.3-.18-.65-.18-1.03v-3.95h.96v4.01c0,.21.04.41.11.6.07.19.17.35.3.49.13.14.29.25.47.33.18.08.39.12.61.12s.42-.04.6-.12c.18-.08.34-.19.47-.33s.23-.3.3-.49c.07-.18.11-.38.11-.6v-4.01h.96v3.95c0,.38-.06.72-.18,1.03-.12.3-.29.56-.51.77s-.48.37-.78.49c-.3.12-.63.17-.99.17Z"/>
        <path class="cls-1" d="M14.44,44.87h1.03l3.17,4.8v-4.8h.92v6.33h-.96l-3.23-4.89v4.89h-.93v-6.33Z"/>
        <path class="cls-1" d="M24.27,44.87h.95l2.44,6.33h-.98l-.51-1.35h-2.86l-.5,1.35h-.99l2.45-6.33ZM23.65,48.94h2.18l-1.09-2.9-1.09,2.9Z"/>
        <path class="cls-1" d="M29.93,44.87h.95v5.41h3.08v.92h-4.02v-6.33Z"/>
        <path class="cls-1" d="M43.45,44.87h.95l2.44,6.33h-.98l-.51-1.35h-2.86l-.5,1.35h-.99l2.45-6.33ZM42.84,48.94h2.18l-1.09-2.9-1.09,2.9Z"/>
        <path class="cls-1" d="M53.68,44.87h1l1.92,5.11,1.92-5.11h1.01l-2.44,6.33h-.95l-2.45-6.33Z"/>
        <path class="cls-1" d="M63.54,48.53l-2.24-3.66h1.06l1.66,2.77,1.66-2.77h1.04l-2.25,3.67v2.66h-.94v-2.67Z"/>
        <path class="cls-1" d="M70.03,44.87h.95l2.44,6.33h-.98l-.51-1.35h-2.86l-.5,1.35h-.99l2.45-6.33ZM69.42,48.94h2.18l-1.09-2.9-1.09,2.9Z"/>
        <path class="cls-1" d="M77.98,51.29c-.66,0-1.21-.12-1.64-.36-.44-.24-.8-.56-1.11-.98l.82-.65c.23.38.51.65.82.83.32.18.68.26,1.08.26.43,0,.75-.09.97-.28s.33-.42.33-.71c0-.19-.05-.35-.14-.46-.09-.12-.22-.22-.37-.29-.15-.08-.33-.14-.53-.19-.2-.05-.41-.09-.62-.14-.24-.05-.49-.11-.73-.18s-.46-.16-.65-.29c-.19-.12-.35-.29-.46-.49-.12-.2-.18-.46-.18-.78,0-.25.05-.48.16-.7.11-.22.26-.41.45-.58.19-.16.42-.29.69-.39.27-.1.56-.14.88-.14.54,0,1,.09,1.38.28.38.19.72.46,1.03.8l-.78.62c-.09-.13-.19-.24-.29-.34-.1-.1-.22-.19-.35-.26-.13-.08-.27-.13-.43-.17-.16-.04-.34-.06-.55-.06-.43,0-.74.09-.92.26-.19.18-.28.4-.28.68,0,.16.04.29.13.39.09.1.2.19.35.25.14.07.31.12.5.16.19.04.39.09.59.13.25.05.5.11.75.19.25.07.48.18.68.31.2.14.36.31.49.53.13.22.19.5.19.85,0,.24-.05.48-.15.71-.1.23-.24.43-.43.6-.19.17-.42.31-.7.42-.28.11-.6.16-.95.16Z"/>
      </g>
      <polygon class="cls-3" points="80.21 0 62.53 37.73 49.25 37.73 35.02 7.36 26.75 17.23 41.2 37.73 26.75 37.73 12.3 17.23 26.75 0 44.83 0 55.89 23.58 66.95 0 80.21 0"/>
      <rect class="cls-2" y="42.13" width="80.21" height=".08"/>
    </g>
  </g>
</svg>