<?xml version="1.0" encoding="UTF-8"?>
<svg id="Layer_2" data-name="Layer 2" xmlns="http://www.w3.org/2000/svg" xmlns:xlink="http://www.w3.org/1999/xlink" viewBox="0 0 174.76 111.73">
  <defs>
    <style>
      .cls-1 {
        fill: url(#linear-gradient-2);
      }

      .cls-2 {
        fill: url(#linear-gradient-10);
      }

      .cls-3 {
        fill: url(#linear-gradient-4);
      }

      .cls-4 {
        fill: url(#linear-gradient-3);
      }

      .cls-5 {
        fill: url(#linear-gradient-5);
      }

      .cls-6 {
        fill: url(#linear-gradient-8);
      }

      .cls-7 {
        fill: #37c2ec;
      }

      .cls-8 {
        fill: url(#linear-gradient-7);
      }

      .cls-9 {
        fill: url(#linear-gradient-9);
      }

      .cls-10 {
        fill: url(#linear-gradient-11);
      }

      .cls-11 {
        fill: url(#linear-gradient-6);
      }

      .cls-12 {
        fill: url(#linear-gradient);
      }
    </style>
    <linearGradient id="linear-gradient" x1="0" y1="104.65" x2="10.77" y2="104.65" gradientUnits="userSpaceOnUse">
      <stop offset="0" stop-color="#f0f0f0" stop-opacity=".9"/>
      <stop offset="1" stop-color="#e8e8e8"/>
    </linearGradient>
    <linearGradient id="linear-gradient-2" x1="14.92" y1="104.75" x2="25.6" y2="104.75" xlink:href="#linear-gradient"/>
    <linearGradient id="linear-gradient-3" x1="31.45" x2="42.62" xlink:href="#linear-gradient"/>
    <linearGradient id="linear-gradient-4" x1="47.55" x2="60.28" xlink:href="#linear-gradient"/>
    <linearGradient id="linear-gradient-5" x1="65.21" x2="73.98" xlink:href="#linear-gradient"/>
    <linearGradient id="linear-gradient-6" x1="89.34" x2="102.08" xlink:href="#linear-gradient"/>
    <linearGradient id="linear-gradient-7" x1="116.95" x2="129.69" xlink:href="#linear-gradient"/>
    <linearGradient id="linear-gradient-8" x1="133.56" x2="145.36" xlink:href="#linear-gradient"/>
    <linearGradient id="linear-gradient-9" x1="147.25" x2="159.99" xlink:href="#linear-gradient"/>
    <linearGradient id="linear-gradient-10" x1="163.9" y1="104.65" x2="174.76" y2="104.65" xlink:href="#linear-gradient"/>
    <linearGradient id="linear-gradient-11" x1="100.78" y1="82.19" x2="100.78" y2="0" xlink:href="#linear-gradient"/>
  </defs>
  <g id="Layer_1-2" data-name="Layer 1">
    <g>
      <polygon class="cls-7" points="28.34 0 0 33.79 0 0 28.34 0"/>
      <g>
        <path class="cls-12" d="M4.63,104.42l-2.59,3.06v4.06H0v-13.79h2.04v7.14l5.95-7.14h2.53l-4.38,5.19,4.63,8.6h-2.36l-3.78-7.12Z"/>
        <path class="cls-1" d="M20.25,111.73c-.78,0-1.5-.13-2.15-.38-.66-.25-1.22-.61-1.69-1.07-.47-.46-.84-1.02-1.1-1.68-.26-.66-.39-1.41-.39-2.24v-8.61h2.1v8.73c0,.47.08.9.24,1.3.16.4.38.76.66,1.06.28.3.63.54,1.03.71.4.17.84.25,1.32.25s.92-.09,1.31-.25c.4-.17.74-.41,1.02-.71s.5-.65.66-1.06c.16-.4.24-.84.24-1.3v-8.73h2.1v8.61c0,.83-.13,1.58-.4,2.24-.26.66-.63,1.22-1.1,1.68s-1.04.82-1.69,1.07c-.66.25-1.37.38-2.15.38Z"/>
        <path class="cls-4" d="M31.45,97.76h2.25l6.91,10.47v-10.47h2v13.79h-2.1l-7.05-10.65v10.65h-2.02v-13.79Z"/>
        <path class="cls-3" d="M52.87,97.76h2.08l5.33,13.79h-2.13l-1.12-2.95h-6.23l-1.1,2.95h-2.15l5.33-13.79ZM51.53,106.63h4.76l-2.38-6.31-2.38,6.31Z"/>
        <path class="cls-5" d="M65.21,97.76h2.06v11.79h6.71v2h-8.77v-13.79Z"/>
        <path class="cls-11" d="M94.67,97.76h2.08l5.33,13.79h-2.13l-1.12-2.95h-6.23l-1.1,2.95h-2.15l5.33-13.79ZM93.33,106.63h4.76l-2.38-6.31-2.38,6.31Z"/>
        <path class="cls-8" d="M116.95,97.76h2.17l4.19,11.13,4.17-11.13h2.19l-5.33,13.79h-2.08l-5.33-13.79Z"/>
        <path class="cls-6" d="M138.43,105.73l-4.87-7.97h2.3l3.61,6.03,3.63-6.03h2.27l-4.89,7.99v5.8h-2.04v-5.82Z"/>
        <path class="cls-9" d="M152.58,97.76h2.08l5.33,13.79h-2.13l-1.12-2.95h-6.23l-1.1,2.95h-2.15l5.33-13.79ZM151.24,106.63h4.76l-2.38-6.31-2.38,6.31Z"/>
        <path class="cls-2" d="M169.88,111.73c-1.44,0-2.63-.26-3.58-.78-.95-.52-1.75-1.23-2.41-2.12l1.79-1.42c.5.82,1.1,1.42,1.79,1.8.69.38,1.47.58,2.34.58.93,0,1.63-.2,2.11-.6s.71-.92.71-1.55c0-.42-.1-.75-.3-1.01-.2-.26-.47-.47-.8-.64-.33-.17-.72-.31-1.15-.41-.43-.1-.88-.2-1.35-.3-.53-.11-1.06-.24-1.59-.39s-1-.35-1.42-.62c-.42-.27-.75-.62-1.01-1.06-.26-.43-.39-1-.39-1.69,0-.54.12-1.05.35-1.53.23-.48.56-.9.98-1.26.42-.36.92-.64,1.5-.85.58-.21,1.22-.31,1.91-.31,1.18,0,2.19.2,3.01.61.82.41,1.57.99,2.24,1.75l-1.7,1.34c-.2-.28-.42-.53-.64-.75-.23-.22-.48-.41-.76-.58-.28-.16-.6-.29-.94-.38-.35-.09-.75-.13-1.2-.13-.93,0-1.6.19-2.01.58-.41.38-.61.88-.61,1.48,0,.35.09.64.28.86.19.22.44.4.76.55.31.14.68.26,1.09.36.41.09.84.19,1.29.27.54.11,1.09.25,1.63.41.55.16,1.04.38,1.47.68.43.3.79.68,1.07,1.15.28.47.42,1.09.42,1.84,0,.53-.11,1.04-.32,1.54-.21.5-.53.94-.94,1.31-.42.38-.93.68-1.53.92-.6.23-1.3.35-2.08.35Z"/>
      </g>
      <polygon class="cls-10" points="174.76 0 136.22 82.19 107.3 82.19 76.3 16.04 58.28 37.53 89.76 82.19 58.28 82.19 26.79 37.53 58.28 0 97.67 0 121.76 51.37 145.86 0 174.76 0"/>
      <rect class="cls-7" y="91.79" width="174.76" height=".18"/>
    </g>
  </g>
</svg>