<?xml version="1.0" encoding="UTF-8"?>
<svg id="Layer_2" data-name="Layer 2" xmlns="http://www.w3.org/2000/svg" viewBox="0 0 783.27 399.62">
  <defs>
    <style>
      .cls-1 {
        fill: #00aeef;
      }
    </style>
  </defs>
  <g id="Layer_1-2" data-name="Layer 1">
    <g>
      <path d="M294.61,395.79c-1.47-.73-3.12-1.73-4.95-3.02-1.84-1.28-3.85-3.2-6.05-5.77-23.45-27.11-45.72-52.85-66.78-77.23-21.08-24.37-42.97-49.01-65.68-73.93-9.53-10.62-16.03-17.22-19.51-19.79-3.49-2.56-6.51-3.85-9.07-3.85-2.94,0-4.86.64-5.77,1.92-.92,1.29-1.92,3.39-3.02,6.32v54.42c0,16.86.18,31.33.55,43.42.36,10.63,1.1,20.53,2.2,29.68,1.1,9.16,3.48,16.13,7.15,20.89,2.56,3.67,6.05,6.79,10.44,9.34,4.4,2.57,9.16,4.67,14.29,6.32s10.17,2.94,15.12,3.85c4.95.92,9.25,1.56,12.92,1.92v5.5H0v-5.5c9.16-1.46,17.95-3.66,26.38-6.6,8.43-2.93,14.84-6.96,19.24-12.09,1.83-2.2,3.3-5.5,4.4-9.89,1.1-4.4,1.92-9.43,2.47-15.12.55-5.68.91-11.72,1.1-18.14.18-6.41.27-12.55.27-18.41,0-5.13.09-12.09.27-20.89.18-8.79.27-18.32.27-28.58V89.09c0-13.92-.46-26.74-1.37-38.48-.92-11.72-3.39-20.15-7.42-25.28-5.14-6.23-11.36-10.8-18.69-13.74-7.33-2.93-15.76-4.95-25.28-6.05V.04h170.39v5.5c-6.97.74-13.74,1.74-20.34,3.02-6.6,1.29-12.46,4.04-17.59,8.25-5.14,4.22-9.44,10.54-12.92,18.96-3.49,8.43-5.41,20.34-5.77,35.73-.37,8.43-.64,16.31-.82,23.64-.19,7.33-.27,15.76-.27,25.28v85.2c6.6-4.03,15.48-10.9,26.66-20.61,11.17-9.7,22.9-20.61,35.18-32.7,12.27-12.09,24.46-24.55,36.55-37.38,12.09-12.82,22.54-24,31.33-33.53,6.23-7.33,11.82-14.84,16.76-22.54,4.95-7.7,7.42-14.65,7.42-20.89,0-10.62-3.67-18.32-10.99-23.09-7.33-4.76-15.76-7.88-25.28-9.34V.04h147.31v5.5c-18.69,1.84-37.57,9.71-56.61,23.64-19.06,13.93-38.48,30.05-58.26,48.37-7.7,6.97-15.58,14.48-23.64,22.54-8.06,8.06-16.03,16.13-23.91,24.19s-15.58,15.85-23.09,23.36-14.39,14.57-20.61,21.16c2.93,3.67,9.71,11.64,20.34,23.91,10.62,12.28,23.27,26.66,37.93,43.15,14.65,16.49,30.32,34.08,47,52.77,16.67,18.69,32.7,36.65,48.1,53.87,3.66,4.4,7.88,8.79,12.64,13.19s9.34,8.34,13.74,11.82c4.4,3.49,8.25,6.51,11.54,9.07,3.3,2.57,5.5,4.04,6.6,4.4,4.76,1.84,11.27,3.67,19.51,5.5,8.25,1.84,17.5,3.12,27.76,3.85v5.5h-123.69v-.04Z"/>
      <path class="cls-1" d="M758.25,14.33c-7.15,4.4-11.27,7.33-12.37,8.79-1.1,1.1-2.66,2.84-4.67,5.22-2.02,2.39-4.31,5.87-6.87,10.44-2.57,4.59-5.59,10.36-9.07,17.31-3.49,6.97-7.42,15.76-11.82,26.38-7.33,17.59-15.39,37.29-24.18,59.09-8.79,21.81-17.78,44.25-26.93,67.33-9.16,23.09-18.23,46.27-27.21,69.53-8.98,23.27-17.5,45.35-25.56,66.23l-26.93,54.97h-6.6c-12.09-29.68-23.36-57.99-33.8-84.92s-20.61-52.85-30.51-77.78c-9.89-24.92-19.43-49.01-28.58-72.28-9.16-23.27-18.33-46.63-27.48-70.08-2.57-6.96-4.95-13-7.15-18.14-2.2-5.13-4.31-9.89-6.32-14.29-2.02-4.4-4.04-8.61-6.05-12.64-2.02-4.03-4.12-8.25-6.32-12.64-1.1-2.2-2.75-4.95-4.95-8.25-2.2-3.3-5.22-6.6-9.07-9.89s-8.52-6.13-14.02-8.52c-5.5-2.38-12.45-3.75-20.89-4.12V.02h164.35v5.5c-1.84.37-5.14.92-9.89,1.65-4.77.74-9.62,2.11-14.57,4.12-4.95,2.02-9.34,4.86-13.19,8.52-3.85,3.67-5.77,8.25-5.77,13.74,0,3.3,2.01,11.09,6.05,23.36,4.03,12.28,9.25,27.12,15.67,44.52,6.41,17.41,13.65,36.47,21.71,57.16,8.06,20.71,16.03,41.04,23.91,61.01,7.88,19.98,15.3,38.57,22.26,55.79,6.96,17.23,12.45,31.33,16.49,42.32,1.83-4.03,5.22-12.45,10.17-25.29,4.95-12.82,11.17-28.76,18.69-47.82,7.51-19.05,15.84-40.67,25.01-64.86,9.16-24.19,18.69-49.47,28.58-75.85,7.33-20.15,12.09-35.45,14.29-45.9,2.2-10.44,3.3-17.67,3.3-21.71,0-5.5-1.84-10.07-5.5-13.74-3.67-3.66-8.25-6.68-13.74-9.07-5.5-2.38-11.27-4.21-17.31-5.5-6.05-1.28-11.46-2.1-16.21-2.47V0h128.07v6.05c-9.55,1.14-17.88,3.89-25.02,8.28Z"/>
    </g>
  </g>
</svg>