<?xml version="1.0" encoding="UTF-8"?>
<svg id="Layer_2" data-name="Layer 2" xmlns="http://www.w3.org/2000/svg" xmlns:xlink="http://www.w3.org/1999/xlink" viewBox="0 0 628 628">
  <defs>
    <style>
      .cls-1, .cls-2 {
        fill: none;
      }

      .cls-2 {
        stroke: #37c2ec;
        stroke-miterlimit: 10;
      }

      .cls-3 {
        clip-path: url(#clippath);
      }

      .cls-4 {
        opacity: .5;
      }
    </style>
    <clipPath id="clippath">
      <circle class="cls-1" cx="314" cy="314" r="314"/>
    </clipPath>
  </defs>
  <g id="Layer_1-2" data-name="Layer 1">
    <g class="cls-4">
      <g class="cls-3">
        <g>
          <line class="cls-2" x1="-248.64" y1="431.03" x2="399.49" y2="-277.57"/>
          <line class="cls-2" x1="-238.82" y1="440.03" x2="409.31" y2="-268.57"/>
          <line class="cls-2" x1="-229" y1="449.04" x2="419.14" y2="-259.56"/>
          <line class="cls-2" x1="-219.17" y1="458.04" x2="428.96" y2="-250.55"/>
          <line class="cls-2" x1="-209.35" y1="467.05" x2="438.78" y2="-241.55"/>
          <line class="cls-2" x1="-199.53" y1="476.06" x2="448.61" y2="-232.54"/>
          <line class="cls-2" x1="-189.7" y1="485.06" x2="458.43" y2="-223.54"/>
          <line class="cls-2" x1="-179.88" y1="494.07" x2="468.25" y2="-214.53"/>
          <line class="cls-2" x1="-170.06" y1="503.08" x2="478.07" y2="-205.52"/>
          <line class="cls-2" x1="-160.24" y1="512.08" x2="487.9" y2="-196.52"/>
          <line class="cls-2" x1="-150.41" y1="521.09" x2="497.72" y2="-187.51"/>
          <line class="cls-2" x1="-140.59" y1="530.1" x2="507.54" y2="-178.5"/>
          <line class="cls-2" x1="-130.77" y1="539.1" x2="517.37" y2="-169.5"/>
          <line class="cls-2" x1="-120.94" y1="548.11" x2="527.19" y2="-160.49"/>
          <line class="cls-2" x1="-111.12" y1="557.11" x2="537.01" y2="-151.48"/>
          <line class="cls-2" x1="-101.3" y1="566.12" x2="546.83" y2="-142.48"/>
          <line class="cls-2" x1="-91.48" y1="575.13" x2="556.66" y2="-133.47"/>
          <line class="cls-2" x1="-81.65" y1="584.13" x2="566.48" y2="-124.47"/>
          <line class="cls-2" x1="-71.83" y1="593.14" x2="576.3" y2="-115.46"/>
          <line class="cls-2" x1="-62.01" y1="602.15" x2="586.13" y2="-106.45"/>
          <line class="cls-2" x1="-52.18" y1="611.15" x2="595.95" y2="-97.45"/>
          <line class="cls-2" x1="-42.36" y1="620.16" x2="605.77" y2="-88.44"/>
          <line class="cls-2" x1="-32.54" y1="629.17" x2="615.59" y2="-79.43"/>
          <line class="cls-2" x1="-22.72" y1="638.17" x2="625.42" y2="-70.43"/>
          <line class="cls-2" x1="-12.89" y1="647.18" x2="635.24" y2="-61.42"/>
          <line class="cls-2" x1="-3.07" y1="656.19" x2="645.06" y2="-52.41"/>
          <line class="cls-2" x1="6.75" y1="665.19" x2="654.89" y2="-43.41"/>
          <line class="cls-2" x1="16.58" y1="674.2" x2="664.71" y2="-34.4"/>
          <line class="cls-2" x1="26.4" y1="683.2" x2="674.53" y2="-25.4"/>
          <line class="cls-2" x1="36.22" y1="692.21" x2="684.35" y2="-16.39"/>
          <line class="cls-2" x1="46.04" y1="701.22" x2="694.18" y2="-7.38"/>
          <line class="cls-2" x1="55.87" y1="710.22" x2="704" y2="1.62"/>
          <line class="cls-2" x1="65.69" y1="719.23" x2="713.82" y2="10.63"/>
          <line class="cls-2" x1="75.51" y1="728.24" x2="723.65" y2="19.64"/>
          <line class="cls-2" x1="85.34" y1="737.24" x2="733.47" y2="28.64"/>
          <line class="cls-2" x1="95.16" y1="746.25" x2="743.29" y2="37.65"/>
          <line class="cls-2" x1="104.98" y1="755.26" x2="753.11" y2="46.66"/>
          <line class="cls-2" x1="114.8" y1="764.26" x2="762.94" y2="55.66"/>
          <line class="cls-2" x1="124.63" y1="773.27" x2="772.76" y2="64.67"/>
          <line class="cls-2" x1="134.45" y1="782.27" x2="782.58" y2="73.68"/>
          <line class="cls-2" x1="144.27" y1="791.28" x2="792.41" y2="82.68"/>
          <line class="cls-2" x1="154.1" y1="800.29" x2="802.23" y2="91.69"/>
          <line class="cls-2" x1="163.92" y1="809.29" x2="812.05" y2="100.69"/>
          <line class="cls-2" x1="173.74" y1="818.3" x2="821.87" y2="109.7"/>
          <line class="cls-2" x1="183.56" y1="827.31" x2="831.7" y2="118.71"/>
          <line class="cls-2" x1="193.39" y1="836.31" x2="841.52" y2="127.71"/>
          <line class="cls-2" x1="203.21" y1="845.32" x2="851.34" y2="136.72"/>
          <line class="cls-2" x1="213.03" y1="854.33" x2="861.17" y2="145.73"/>
          <line class="cls-2" x1="222.86" y1="863.33" x2="870.99" y2="154.73"/>
          <line class="cls-2" x1="232.68" y1="872.34" x2="880.81" y2="163.74"/>
          <line class="cls-2" x1="242.5" y1="881.34" x2="890.63" y2="172.75"/>
          <line class="cls-2" x1="252.32" y1="890.35" x2="900.46" y2="181.75"/>
        </g>
      </g>
    </g>
  </g>
</svg>